# xmcd
#
# Track frame offsets:
#	150
#	20018
#	42189
#	65512
#	85711
#	110356
#	126317
#	144561
#	164571
#	184709
#	205431
#	232651
#	257415
#
# Disc length: 3726 seconds
# Revision: 1
# Processed by: cddbd v1.5.2PL0 Copyright (c) Steve Scherf et al.
# Submitted via: dBpowerAMP V12.0
#
DISCID=af0e8c0d
DTITLE=Peter Novelli - Louisiana Roots and Blues
DYEAR=2012
DGENRE=Blues
TTITLE0=Shadow Man
TTITLE1=Dyin' By Numbers
TTITLE2=Elysian Breakdown
TTITLE3=Eyes Talk
TTITLE4=Treme 3 A.M.
TTITLE5=(She's My) Voodoo Baby
TTITLE6=Upside Down Turned Around
TTITLE7=Zydeco Lady
TTITLE8=4 On Da Floor
TTITLE9=Lovin' A Hurricane
TTITLE10=(This Is Our) Last Goodbye
TTITLE11=Treme 3 A.M. ( Instrumental )
TTITLE12=Dyin' By Numbers ( Instrumental )
EXTD=
EXTT0=
EXTT1=
EXTT2=
EXTT3=
EXTT4=
EXTT5=
EXTT6=
EXTT7=
EXTT8=
EXTT9=
EXTT10=
EXTT11=
EXTT12=
PLAYORDER=
